<svg width="32" height="32" viewBox="0 0 32 32" fill="none" xmlns="http://www.w3.org/2000/svg">
<path d="M5.54492 31.4102H25.707C29.2227 31.4102 31.0156 29.6348 31.0156 26.1543V5.86914C31.0156 2.40625 29.2227 0.630859 25.707 0.630859H5.54492C2.0293 0.630859 0.236328 2.38867 0.236328 5.86914V26.1543C0.236328 29.6348 2.0293 31.4102 5.54492 31.4102ZM5.65039 28.5098C4.0332 28.5098 3.13672 27.6484 3.13672 25.9609V6.0625C3.13672 4.375 4.0332 3.53125 5.65039 3.53125H25.6016C27.2012 3.53125 28.1152 4.375 28.1152 6.0625V25.9609C28.1152 27.6484 27.2012 28.5098 25.6016 28.5098H5.65039ZM20.8379 20.1953C21.5938 20.1953 22.1035 19.6152 22.1035 18.8066V11.002C22.1035 9.94727 21.541 9.52539 20.6094 9.52539H12.7695C11.9434 9.52539 11.416 10.0176 11.416 10.791C11.416 11.5645 11.9609 12.0566 12.7871 12.0566H15.7402L18.1309 11.793L15.5996 14.1484L9.57031 20.1777C9.32422 20.4238 9.14844 20.7754 9.14844 21.127C9.14844 21.9355 9.67578 22.4453 10.4492 22.4453C10.8711 22.4453 11.2051 22.2871 11.4512 22.041L17.4805 16.0293L19.8008 13.5156L19.5547 16.0293V18.8242C19.5547 19.668 20.0645 20.1953 20.8379 20.1953Z" fill="black"/>
</svg>
