<svg width="23" height="33" viewBox="0 0 23 33" fill="none" xmlns="http://www.w3.org/2000/svg">
<path d="M3.26562 32.832H19.1738C21.3535 32.832 22.4258 31.7598 22.4258 29.3867V17.0996C22.4258 14.9727 21.5469 13.8828 19.7363 13.707V9.54102C19.7363 3.26562 15.5879 0.224609 11.2285 0.224609C6.85156 0.224609 2.70312 3.26562 2.70312 9.54102V13.7773C1.0332 14.041 0.0136719 15.1133 0.0136719 17.0996V29.3867C0.0136719 31.7598 1.08594 32.832 3.26562 32.832ZM5.55078 9.20703C5.55078 5.12891 8.15234 2.94922 11.2285 2.94922C14.2871 2.94922 16.8887 5.12891 16.8887 9.20703V13.6719L5.55078 13.707V9.20703Z" fill="black"/>
</svg>
