<svg width="66" height="52" viewBox="0 0 66 52" fill="none" xmlns="http://www.w3.org/2000/svg">
<path d="M8.43945 51.2734H56.7207C62.2871 51.2734 65.0703 48.4902 65.0703 43.0117V9.11523C65.0703 3.63672 62.2871 0.824219 56.7207 0.824219H8.43945C2.87305 0.824219 0.0605469 3.60742 0.0605469 9.11523V43.0117C0.0605469 48.4902 2.87305 51.2734 8.43945 51.2734ZM8.49805 47.4648C5.50977 47.4648 3.89844 45.8828 3.89844 42.8066V9.32031C3.89844 6.24414 5.50977 4.66211 8.49805 4.66211H56.6328C59.5625 4.66211 61.2617 6.24414 61.2617 9.32031V42.8066C61.2617 45.8828 59.5625 47.4648 56.6328 47.4648H8.49805ZM22.5605 36.6543C22.5605 38.793 23.498 39.7598 25.4316 39.7598H39.7285C41.6914 39.7598 42.6289 38.793 42.6289 36.6543V25.4922C42.6289 23.5 41.7793 22.5332 40.0215 22.4453V18.9883C40.0215 14.0078 37.0332 10.6973 32.5801 10.6973C28.127 10.6973 25.1387 14.0078 25.1387 18.9883V22.4453C23.4102 22.5332 22.5605 23.5 22.5605 25.4922V36.6543ZM27.7168 22.416V18.7539C27.7168 15.4141 29.6797 13.2168 32.5801 13.2168C35.5098 13.2168 37.4727 15.4141 37.4727 18.7539V22.416H27.7168Z" fill="black"/>
</svg>
