<svg width="501" height="473" viewBox="0 0 501 473" fill="none" xmlns="http://www.w3.org/2000/svg">
<path opacity="0.4" d="M500.002 222.335C500.002 360.407 388.073 472.336 250.002 472.336C111.931 472.336 0.00177002 360.407 0.00177002 222.335C0.00177002 84.2643 167.931 336.336 306.002 336.336C444.073 336.336 500.002 84.2643 500.002 222.335Z" fill="url(#paint0_linear)"/>
<path opacity="0.4" d="M500 229.524C500 363.44 388.072 472 250.001 472C111.93 472 0.00175721 363.44 0.00175721 229.524C0.00175721 95.6075 -2.0694 344.942 136.001 344.942C274.072 344.942 500 95.6075 500 229.524Z" fill="url(#paint1_linear)"/>
<defs>
<linearGradient id="paint0_linear" x1="227.262" y1="-0.664377" x2="281" y2="45" gradientUnits="userSpaceOnUse">
<stop offset="1" stop-color="#D8EDFA"/>
</linearGradient>
<linearGradient id="paint1_linear" x1="227.261" y1="13.2348" x2="227.261" y2="498.188" gradientUnits="userSpaceOnUse">
<stop stop-color="#697277"/>
<stop offset="1" stop-color="#D8EDFA"/>
</linearGradient>
</defs>
</svg>
