<svg width="35" height="33" viewBox="0 0 35 33" fill="none" xmlns="http://www.w3.org/2000/svg">
<path d="M3.48828 32.832H19.3965C21.5762 32.832 22.6484 31.7598 22.6484 29.3867V17.0996C22.6484 15.043 21.8223 13.9531 20.1348 13.7246V9.20703C20.1348 5.12891 22.7363 2.94922 25.7949 2.94922C28.8711 2.94922 31.4727 5.12891 31.4727 9.20703V12.8457C31.4727 13.9004 32.0879 14.4453 32.9141 14.4453C33.6875 14.4453 34.3203 13.9531 34.3203 12.8457V9.54102C34.3203 3.26562 30.1719 0.224609 25.7949 0.224609C21.418 0.224609 17.2871 3.26562 17.2871 9.54102V13.6719L3.80469 13.707C1.625 13.707 0.236328 14.7793 0.236328 17.0996V29.3867C0.236328 31.7598 1.30859 32.832 3.48828 32.832Z" fill="black"/>
</svg>
